<svg width="119" height="119" viewBox="-6 -6 131 131" fill="none" xmlns="http://www.w3.org/2000/svg">
<path d="M59.5 119C92.3609 119 119 92.3609 119 59.5C119 26.6391 92.3609 0 59.5 0C26.6391 0 0 26.6391 0 59.5C0 92.3609 26.6391 119 59.5 119Z" fill="#5F67FA"/>
<path fill-rule="evenodd" clip-rule="evenodd" d="M62.9126 82.0655V70.1024H72.5314C70.4893 76.3823 66.9238 81.0155 62.9126 82.0655V82.0655ZM59.5183 46.8283H49.7282C51.6797 40.3595 55.2427 35.8018 59.5183 34.845V46.8283ZM59.5181 82.0655C55.5044 81.0155 51.9414 76.3823 49.8967 70.1024H59.5181V82.0655ZM39.2078 70.1024H46.2784C47.5903 74.6953 49.6727 78.5579 52.2411 81.3151C46.7266 79.3083 42.0759 75.3701 39.2078 70.1024V70.1024ZM37.6894 50.2226H45.4147C44.9464 52.791 44.7021 55.5683 44.7021 58.4565C44.7021 61.3246 44.9841 64.0818 45.4726 66.6905H37.6894C35.7581 61.3447 35.7581 55.5683 37.6894 50.2226V50.2226ZM48.8645 50.2226H59.4981V66.6905H48.9577C48.4163 64.0994 48.0965 61.3246 48.0965 58.4565C48.0965 55.5507 48.3785 52.7733 48.8645 50.2226V50.2226ZM51.249 36.0259C51.4354 35.9529 51.6418 35.8774 51.8282 35.8018C49.3731 38.5012 47.4216 42.3084 46.1828 46.8484H39.2078C41.8518 41.971 46.0518 38.1637 51.249 36.0259V36.0259ZM62.9126 34.845C67.1882 35.8018 70.7512 40.3595 72.7001 46.8484H62.9126V34.845ZM82.6391 71.0874C82.2815 71.0874 82.3868 71.0874 81.3406 71.0874C78.9535 75.0961 75.4521 78.2633 70.9751 80.3961C73.1708 77.7345 76.132 71.0874 76.132 71.0874C76.132 71.0874 70.8235 67.4595 70.2153 66.6905H62.9124V50.2226H70.2153C70.8135 49.4645 76.132 45.8941 76.132 45.8941C76.132 45.8941 73.4705 39.3246 71.388 36.7184C75.432 38.7354 78.8338 41.9282 81.2436 45.8941C81.6267 45.8941 82.2351 45.8941 82.3868 45.8941H85.2095C80.4907 36.7109 70.9852 30.7759 60.5102 30.7759C56.8741 30.7759 53.3111 31.4885 49.9345 32.8961C43.1081 35.7263 37.7825 41.0519 34.9522 47.8783C32.1194 54.7047 32.1194 62.2436 34.9522 69.07C39.2455 79.4594 49.2974 86.1724 60.5479 86.1724C64.1865 86.1724 67.7495 85.4623 71.1262 84.0548C77.4842 81.4234 82.3238 76.7958 85.2095 71.0874H82.6391Z" fill="white"/>
<g clip-path="url(#clip0)">
<path d="M82.2778 56.7596L85.2415 53.7959" stroke="white" stroke-width="2" stroke-miterlimit="10" stroke-linecap="round" stroke-linejoin="round"/>
<path d="M88.2051 56.7596L85.2414 53.7959" stroke="white" stroke-width="2" stroke-miterlimit="10" stroke-linecap="round" stroke-linejoin="round"/>
<path d="M85.2415 53.7959V62.6869" stroke="white" stroke-width="2" stroke-miterlimit="10" stroke-linecap="round" stroke-linejoin="round"/>
</g>
<g clip-path="url(#clip1)">
<path d="M79.2051 59.7232L76.2415 62.6869" stroke="white" stroke-width="2" stroke-miterlimit="10" stroke-linecap="round" stroke-linejoin="round"/>
<path d="M73.2778 59.7232L76.2415 62.6869" stroke="white" stroke-width="2" stroke-miterlimit="10" stroke-linecap="round" stroke-linejoin="round"/>
<path d="M76.2414 62.6869L76.2414 53.7959" stroke="white" stroke-width="2" stroke-miterlimit="10" stroke-linecap="round" stroke-linejoin="round"/>
</g>
<defs>
<clipPath id="clip0">
<rect width="10.2409" height="10.2409" fill="white" transform="translate(92.4829 58.2414) rotate(135)"/>
</clipPath>
<clipPath id="clip1">
<rect width="10.2409" height="10.2409" fill="white" transform="translate(69 58.2414) rotate(-45)"/>
</clipPath>
</defs>
</svg>
